<svg xmlns="http://www.w3.org/2000/svg" x="0px" y="0px"
width="50" height="50"
viewBox="0 0 171 171"
style=" fill:#000000;"><g fill="none" fill-rule="nonzero" stroke="none" stroke-width="1" stroke-linecap="butt" stroke-linejoin="miter" stroke-miterlimit="10" stroke-dasharray="" stroke-dashoffset="0" font-family="none" font-weight="none" font-size="none" text-anchor="none" style="mix-blend-mode: normal"><path d="M0,171.98863v-171.98863h171.98863v171.98863z" fill="none"></path><g fill="#1f83e0"><path d="M126.54,13.69336c-7.88224,-0.00043 -15.767,3.00383 -21.7691,9.00422l-17.1,17.1c-8.52264,8.52264 -10.95853,20.82972 -7.37437,31.55484l12.28394,-12.28395c0.513,-3.51234 2.06424,-6.90033 4.76262,-9.59871l17.1,-17.1c3.3345,-3.33108 7.71931,-5.00309 12.09691,-5.00309c4.3776,0 8.75915,1.66859 12.09023,5.00309c6.66558,6.669 6.66558,17.51489 0,24.18047l-17.1,17.1c-2.69838,2.69838 -6.08295,4.2462 -9.59871,4.76262l-12.29063,12.29063c3.17376,1.0602 6.47844,1.62317 9.79242,1.62317c7.8831,0 15.767,-3.00212 21.7691,-9.00422l17.1,-17.1c12.0042,-12.00078 12.00078,-31.52406 0,-43.52484c-6.0021,-5.99868 -13.88018,-9.00379 -21.76242,-9.00422zM105.88641,58.0732c-1.77702,0.05295 -3.46363,0.79563 -4.7025,2.0707l-41.04,41.04c-1.78689,1.71559 -2.50669,4.26315 -1.88181,6.66017c0.62488,2.39702 2.4968,4.26895 4.89383,4.89383c2.39702,0.62488 4.94458,-0.09493 6.66017,-1.88181l41.04,-41.04c2.023,-1.96644 2.63127,-4.97313 1.53171,-7.57128c-1.09956,-2.59815 -3.68138,-4.25477 -6.50139,-4.17161zM63.09633,78.74016c-8.38611,-0.42675 -16.9042,2.53876 -23.29875,8.93074l-17.1,17.1c-12.00078,12.00078 -12.00078,31.53074 0,43.53152c6.0021,5.99868 13.88274,8.99754 21.76242,8.99754c7.87968,0 15.76032,-3.00212 21.76242,-9.00422l17.1,-17.1c8.52264,-8.52264 10.96521,-20.82972 7.38105,-31.55484l-12.29063,12.29063c-0.513,3.51234 -2.06424,6.90033 -4.76262,9.59871l-17.1,17.1c-6.66558,6.669 -17.51489,6.669 -24.18047,0c-6.66558,-6.669 -6.66558,-17.51489 0,-24.18047l17.1,-17.1c2.69838,-2.69838 6.08637,-4.25288 9.59871,-4.7693l12.28395,-12.28394c-2.68128,-0.89604 -5.46072,-1.41412 -8.25609,-1.55637z"></path></g></g></svg>
